<mxfile host="65bd71144e">
    <diagram id="Xe6HpRJq5taVYwGWrfvN" name="Page-1">
        <mxGraphModel dx="570" dy="611" grid="1" gridSize="10" guides="1" tooltips="1" connect="1" arrows="1" fold="1" page="1" pageScale="1" pageWidth="850" pageHeight="1100" math="0" shadow="0">
            <root>
                <mxCell id="0"/>
                <mxCell id="1" parent="0"/>
                <mxCell id="2" value="" style="opacity=30;fillColor=light-dark(#212121, #392f3f);strokeColor=#9673a6;" vertex="1" parent="1">
                    <mxGeometry x="610" y="630" width="870" height="85" as="geometry"/>
                </mxCell>
                <mxCell id="3" value="" style="fillColor=#AE4132;strokeColor=none;opacity=30;" vertex="1" parent="1">
                    <mxGeometry x="747" y="175.50000000000003" width="210" height="99.99999999999994" as="geometry"/>
                </mxCell>
                <mxCell id="4" value="" style="fillColor=#10739E;strokeColor=none;opacity=30;" vertex="1" parent="1">
                    <mxGeometry x="97" y="325.5" width="1470" height="99.99999999999994" as="geometry"/>
                </mxCell>
                <mxCell id="5" value="" style="fillColor=#F2931E;strokeColor=none;opacity=30;" vertex="1" parent="1">
                    <mxGeometry x="610" y="545" width="870" height="85" as="geometry"/>
                </mxCell>
                <mxCell id="6" value="" style="fillColor=#12AAB5;strokeColor=none;opacity=30;" vertex="1" parent="1">
                    <mxGeometry x="1207" y="445.5000000000001" width="500" height="80" as="geometry"/>
                </mxCell>
                <mxCell id="7" value="" style="fillColor=#12AAB5;strokeColor=none;opacity=30;" vertex="1" parent="1">
                    <mxGeometry x="407" y="445.5" width="500" height="80" as="geometry"/>
                </mxCell>
                <mxCell id="8" style="edgeStyle=orthogonalEdgeStyle;rounded=0;orthogonalLoop=1;jettySize=auto;html=1;" edge="1" parent="1" source="9" target="16">
                    <mxGeometry relative="1" as="geometry"/>
                </mxCell>
                <mxCell id="9" value="Home page" style="rounded=1;fillColor=#23445D;gradientColor=none;strokeColor=none;fontColor=#FFFFFF;fontStyle=1;fontFamily=Tahoma;fontSize=14" vertex="1" parent="1">
                    <mxGeometry x="757" y="185.5" width="190" height="80" as="geometry"/>
                </mxCell>
                <mxCell id="10" value="Contact" style="rounded=1;fillColor=#23445D;gradientColor=none;strokeColor=none;fontColor=#FFFFFF;fontStyle=1;fontFamily=Tahoma;fontSize=14" vertex="1" parent="1">
                    <mxGeometry x="1361.9999999999998" y="335.5" width="190" height="80" as="geometry"/>
                </mxCell>
                <mxCell id="11" value="" style="edgeStyle=elbowEdgeStyle;elbow=vertical;strokeWidth=2;rounded=0" edge="1" parent="1" source="9" target="10">
                    <mxGeometry x="337" y="215.5" width="100" height="100" as="geometry">
                        <mxPoint x="337" y="315.5" as="sourcePoint"/>
                        <mxPoint x="437" y="215.5" as="targetPoint"/>
                        <Array as="points">
                            <mxPoint x="1160" y="300"/>
                        </Array>
                    </mxGeometry>
                </mxCell>
                <mxCell id="12" style="edgeStyle=orthogonalEdgeStyle;rounded=0;orthogonalLoop=1;jettySize=auto;html=1;" edge="1" parent="1" source="16" target="25">
                    <mxGeometry relative="1" as="geometry">
                        <Array as="points">
                            <mxPoint x="1042" y="540"/>
                            <mxPoint x="855" y="540"/>
                        </Array>
                    </mxGeometry>
                </mxCell>
                <mxCell id="13" style="edgeStyle=orthogonalEdgeStyle;rounded=0;orthogonalLoop=1;jettySize=auto;html=1;" edge="1" parent="1" source="16" target="27">
                    <mxGeometry relative="1" as="geometry">
                        <Array as="points">
                            <mxPoint x="1042" y="540"/>
                            <mxPoint x="692" y="540"/>
                        </Array>
                    </mxGeometry>
                </mxCell>
                <mxCell id="14" style="edgeStyle=orthogonalEdgeStyle;rounded=0;orthogonalLoop=1;jettySize=auto;html=1;" edge="1" parent="1" source="16" target="41">
                    <mxGeometry relative="1" as="geometry">
                        <Array as="points">
                            <mxPoint x="1042" y="540"/>
                            <mxPoint x="1215" y="540"/>
                        </Array>
                    </mxGeometry>
                </mxCell>
                <mxCell id="15" style="edgeStyle=orthogonalEdgeStyle;rounded=0;orthogonalLoop=1;jettySize=auto;html=1;" edge="1" parent="1" source="16" target="43">
                    <mxGeometry relative="1" as="geometry">
                        <Array as="points">
                            <mxPoint x="1042" y="540"/>
                            <mxPoint x="1375" y="540"/>
                        </Array>
                    </mxGeometry>
                </mxCell>
                <mxCell id="16" value="Portfolio" style="rounded=1;fillColor=#23445D;gradientColor=none;strokeColor=none;fontColor=#FFFFFF;fontStyle=1;fontFamily=Tahoma;fontSize=14" vertex="1" parent="1">
                    <mxGeometry x="947" y="335.5" width="190" height="80" as="geometry"/>
                </mxCell>
                <mxCell id="17" value="Resume" style="rounded=1;fillColor=#23445D;gradientColor=none;strokeColor=none;fontColor=#FFFFFF;fontStyle=1;fontFamily=Tahoma;fontSize=14" vertex="1" parent="1">
                    <mxGeometry x="561.9999999999999" y="335.5" width="190" height="80" as="geometry"/>
                </mxCell>
                <mxCell id="18" value="About" style="rounded=1;fillColor=#23445D;gradientColor=none;strokeColor=none;fontColor=#FFFFFF;fontStyle=1;fontFamily=Tahoma;fontSize=14" vertex="1" parent="1">
                    <mxGeometry x="107" y="335.5" width="190" height="80" as="geometry"/>
                </mxCell>
                <mxCell id="19" value="Github" style="rounded=1;fillColor=#23445D;gradientColor=none;strokeColor=none;fontColor=#FFFFFF;fontStyle=1;fontFamily=Tahoma;fontSize=14" vertex="1" parent="1">
                    <mxGeometry x="417" y="455.5" width="130" height="60" as="geometry"/>
                </mxCell>
                <mxCell id="20" value="Certificate" style="rounded=1;fillColor=#23445D;gradientColor=none;strokeColor=none;fontColor=#FFFFFF;fontStyle=1;fontFamily=Tahoma;fontSize=14" vertex="1" parent="1">
                    <mxGeometry x="592" y="455.5" width="130" height="60" as="geometry"/>
                </mxCell>
                <mxCell id="21" value="Activity" style="rounded=1;fillColor=#23445D;gradientColor=none;strokeColor=none;fontColor=#FFFFFF;fontStyle=1;fontFamily=Tahoma;fontSize=14" vertex="1" parent="1">
                    <mxGeometry x="767" y="455.5" width="130" height="60" as="geometry"/>
                </mxCell>
                <mxCell id="22" value="" style="edgeStyle=orthogonalEdgeStyle;rounded=0;orthogonalLoop=1;jettySize=auto;html=1;" edge="1" parent="1" source="23" target="46">
                    <mxGeometry relative="1" as="geometry"/>
                </mxCell>
                <mxCell id="23" value="All" style="rounded=1;fillColor=#23445D;gradientColor=none;strokeColor=none;fontColor=#FFFFFF;fontStyle=1;fontFamily=Tahoma;fontSize=14" vertex="1" parent="1">
                    <mxGeometry x="977" y="560" width="130" height="60" as="geometry"/>
                </mxCell>
                <mxCell id="24" value="" style="edgeStyle=orthogonalEdgeStyle;rounded=0;orthogonalLoop=1;jettySize=auto;html=1;" edge="1" parent="1" source="25" target="45">
                    <mxGeometry relative="1" as="geometry"/>
                </mxCell>
                <mxCell id="25" value="Web Site" style="rounded=1;fillColor=#23445D;gradientColor=none;strokeColor=none;fontColor=#FFFFFF;fontStyle=1;fontFamily=Tahoma;fontSize=14" vertex="1" parent="1">
                    <mxGeometry x="790" y="560" width="130" height="60" as="geometry"/>
                </mxCell>
                <mxCell id="26" value="" style="edgeStyle=orthogonalEdgeStyle;rounded=0;orthogonalLoop=1;jettySize=auto;html=1;" edge="1" parent="1" source="27" target="44">
                    <mxGeometry relative="1" as="geometry"/>
                </mxCell>
                <mxCell id="27" value="Web App" style="rounded=1;fillColor=#23445D;gradientColor=none;strokeColor=none;fontColor=#FFFFFF;fontStyle=1;fontFamily=Tahoma;fontSize=14" vertex="1" parent="1">
                    <mxGeometry x="627" y="560" width="130" height="60" as="geometry"/>
                </mxCell>
                <mxCell id="28" value="Address" style="rounded=1;fillColor=#23445D;gradientColor=none;strokeColor=none;fontColor=#FFFFFF;fontStyle=1;fontFamily=Tahoma;fontSize=14" vertex="1" parent="1">
                    <mxGeometry x="1217" y="455.50000000000006" width="130" height="60" as="geometry"/>
                </mxCell>
                <mxCell id="29" value="Call Us" style="rounded=1;fillColor=#23445D;gradientColor=none;strokeColor=none;fontColor=#FFFFFF;fontStyle=1;fontFamily=Tahoma;fontSize=14" vertex="1" parent="1">
                    <mxGeometry x="1392" y="455.50000000000006" width="130" height="60" as="geometry"/>
                </mxCell>
                <mxCell id="30" value="Email Us" style="rounded=1;fillColor=#23445D;gradientColor=none;strokeColor=none;fontColor=#FFFFFF;fontStyle=1;fontFamily=Tahoma;fontSize=14" vertex="1" parent="1">
                    <mxGeometry x="1567" y="455.50000000000006" width="130" height="60" as="geometry"/>
                </mxCell>
                <mxCell id="31" value="" style="edgeStyle=elbowEdgeStyle;elbow=vertical;strokeWidth=2;rounded=0" edge="1" parent="1" source="9" target="17">
                    <mxGeometry x="347" y="225.5" width="100" height="100" as="geometry">
                        <mxPoint x="861.9999999999999" y="275.5" as="sourcePoint"/>
                        <mxPoint x="1466.9999999999998" y="345.5" as="targetPoint"/>
                    </mxGeometry>
                </mxCell>
                <mxCell id="32" value="" style="edgeStyle=elbowEdgeStyle;elbow=vertical;strokeWidth=2;rounded=0" edge="1" parent="1" source="9" target="18">
                    <mxGeometry x="-23" y="135.5" width="100" height="100" as="geometry">
                        <mxPoint x="-23" y="235.5" as="sourcePoint"/>
                        <mxPoint x="77" y="135.5" as="targetPoint"/>
                    </mxGeometry>
                </mxCell>
                <mxCell id="33" value="" style="edgeStyle=elbowEdgeStyle;elbow=vertical;strokeWidth=2;rounded=0" edge="1" parent="1" source="17" target="19">
                    <mxGeometry x="-23" y="135.5" width="100" height="100" as="geometry">
                        <mxPoint x="-23" y="235.5" as="sourcePoint"/>
                        <mxPoint x="77" y="135.5" as="targetPoint"/>
                    </mxGeometry>
                </mxCell>
                <mxCell id="34" value="" style="edgeStyle=elbowEdgeStyle;elbow=vertical;strokeWidth=2;rounded=0" edge="1" parent="1" source="17" target="20">
                    <mxGeometry x="-23" y="135.5" width="100" height="100" as="geometry">
                        <mxPoint x="-23" y="235.5" as="sourcePoint"/>
                        <mxPoint x="77" y="135.5" as="targetPoint"/>
                    </mxGeometry>
                </mxCell>
                <mxCell id="35" value="" style="edgeStyle=elbowEdgeStyle;elbow=vertical;strokeWidth=2;rounded=0" edge="1" parent="1" source="17" target="21">
                    <mxGeometry x="-23" y="135.5" width="100" height="100" as="geometry">
                        <mxPoint x="-23" y="235.5" as="sourcePoint"/>
                        <mxPoint x="77" y="135.5" as="targetPoint"/>
                    </mxGeometry>
                </mxCell>
                <mxCell id="36" value="" style="edgeStyle=elbowEdgeStyle;elbow=vertical;strokeWidth=2;rounded=0" edge="1" parent="1" source="16" target="23">
                    <mxGeometry x="-23" y="135.5" width="100" height="100" as="geometry">
                        <mxPoint x="-23" y="235.5" as="sourcePoint"/>
                        <mxPoint x="77" y="135.5" as="targetPoint"/>
                    </mxGeometry>
                </mxCell>
                <mxCell id="37" value="" style="edgeStyle=elbowEdgeStyle;elbow=vertical;strokeWidth=2;rounded=0" edge="1" parent="1" source="10" target="29">
                    <mxGeometry x="-23" y="135.5" width="100" height="100" as="geometry">
                        <mxPoint x="-23" y="235.5" as="sourcePoint"/>
                        <mxPoint x="77" y="135.5" as="targetPoint"/>
                    </mxGeometry>
                </mxCell>
                <mxCell id="38" value="" style="edgeStyle=elbowEdgeStyle;elbow=vertical;strokeWidth=2;rounded=0" edge="1" parent="1" source="10" target="28">
                    <mxGeometry x="-23" y="135.5" width="100" height="100" as="geometry">
                        <mxPoint x="-23" y="235.5" as="sourcePoint"/>
                        <mxPoint x="77" y="135.5" as="targetPoint"/>
                    </mxGeometry>
                </mxCell>
                <mxCell id="39" value="" style="edgeStyle=elbowEdgeStyle;elbow=vertical;strokeWidth=2;rounded=0" edge="1" parent="1" source="10" target="30">
                    <mxGeometry x="-23" y="135.5" width="100" height="100" as="geometry">
                        <mxPoint x="-23" y="235.5" as="sourcePoint"/>
                        <mxPoint x="77" y="135.5" as="targetPoint"/>
                    </mxGeometry>
                </mxCell>
                <mxCell id="40" value="" style="edgeStyle=orthogonalEdgeStyle;rounded=0;orthogonalLoop=1;jettySize=auto;html=1;" edge="1" parent="1" source="41" target="47">
                    <mxGeometry relative="1" as="geometry"/>
                </mxCell>
                <mxCell id="41" value="Figma" style="rounded=1;fillColor=#23445D;gradientColor=none;strokeColor=none;fontColor=#FFFFFF;fontStyle=1;fontFamily=Tahoma;fontSize=14" vertex="1" parent="1">
                    <mxGeometry x="1150" y="560" width="130" height="60" as="geometry"/>
                </mxCell>
                <mxCell id="42" value="" style="edgeStyle=orthogonalEdgeStyle;rounded=0;orthogonalLoop=1;jettySize=auto;html=1;" edge="1" parent="1" source="43" target="48">
                    <mxGeometry relative="1" as="geometry"/>
                </mxCell>
                <mxCell id="43" value="Other" style="rounded=1;fillColor=#23445D;gradientColor=none;strokeColor=none;fontColor=#FFFFFF;fontStyle=1;fontFamily=Tahoma;fontSize=14" vertex="1" parent="1">
                    <mxGeometry x="1310" y="560" width="130" height="60" as="geometry"/>
                </mxCell>
                <mxCell id="44" value="Detail" style="rounded=1;fillColor=#23445D;gradientColor=none;strokeColor=none;fontColor=#FFFFFF;fontStyle=1;fontFamily=Tahoma;fontSize=14" vertex="1" parent="1">
                    <mxGeometry x="627" y="650" width="130" height="60" as="geometry"/>
                </mxCell>
                <mxCell id="45" value="Detail" style="rounded=1;fillColor=#23445D;gradientColor=none;strokeColor=none;fontColor=#FFFFFF;fontStyle=1;fontFamily=Tahoma;fontSize=14" vertex="1" parent="1">
                    <mxGeometry x="790" y="650" width="130" height="60" as="geometry"/>
                </mxCell>
                <mxCell id="46" value="Detail" style="rounded=1;fillColor=#23445D;gradientColor=none;strokeColor=none;fontColor=#FFFFFF;fontStyle=1;fontFamily=Tahoma;fontSize=14" vertex="1" parent="1">
                    <mxGeometry x="977" y="650" width="130" height="60" as="geometry"/>
                </mxCell>
                <mxCell id="47" value="Detail" style="rounded=1;fillColor=#23445D;gradientColor=none;strokeColor=none;fontColor=#FFFFFF;fontStyle=1;fontFamily=Tahoma;fontSize=14" vertex="1" parent="1">
                    <mxGeometry x="1150" y="650" width="130" height="60" as="geometry"/>
                </mxCell>
                <mxCell id="48" value="Detail" style="rounded=1;fillColor=#23445D;gradientColor=none;strokeColor=none;fontColor=#FFFFFF;fontStyle=1;fontFamily=Tahoma;fontSize=14" vertex="1" parent="1">
                    <mxGeometry x="1310" y="650" width="130" height="60" as="geometry"/>
                </mxCell>
            </root>
        </mxGraphModel>
    </diagram>
</mxfile>